<svg width="750" height="80" viewBox="0 0 750 80" fill="none" xmlns="http://www.w3.org/2000/svg">
<path d="M0 0H40.3646C62.456 0 80.3646 17.9086 80.3646 40C80.3646 62.0914 62.365 80 40.2736 80C18.0816 80 0 62.0098 0 39.8177V0Z" fill="url(#paint0_linear_83_5)"/>
<path d="M708.52 70V72H710.52H745.4H747.4V70V61.68V59.68H745.4H721.16V14V12H719.16H710.52H708.52V14V70Z" stroke="#3D3D3D" stroke-width="4"/>
<path d="M646.799 69.2779L645.745 72H648.664H657.464H658.843L659.333 70.7111L664.138 58.08H684.806L689.594 70.709L690.083 72H691.464H700.664H703.575L702.531 69.2826L681.011 13.2826L680.518 12H679.144H670.344H668.974L668.479 13.2779L646.799 69.2779ZM676.807 36.9845L680.135 45.76H668.824L672.053 37.2711L672.062 37.2485L672.07 37.2256C672.388 36.3242 672.787 35.2084 673.266 33.8774L673.27 33.8659L673.274 33.8542C673.691 32.649 674.108 31.3865 674.523 30.067C675.005 31.5296 675.425 32.8698 675.786 34.0882L675.796 34.1205L675.807 34.1525C676.264 35.5243 676.605 36.5016 676.807 36.9845Z" stroke="#3D3D3D" stroke-width="4"/>
<path d="M589.067 72V70V14V12H591.067H598.827H599.829L600.429 12.8031L628.664 50.6041C628.531 48.3865 628.425 46.0187 628.348 43.5015C628.24 40.012 628.187 36.3114 628.187 32.4V14V12H630.187H638.827H640.827V14V70V72H638.827H630.907H629.917L629.316 71.2129L600.934 33.9991C600.95 34.188 600.965 34.3735 600.98 34.5555C600.98 34.5561 600.98 34.5567 600.98 34.5573L598.987 34.72C599.2 37.28 599.36 39.3333 599.467 40.88C599.573 42.4267 599.627 43.6533 599.627 44.56L589.067 72ZM589.067 72H591.067H599.707H601.707V70V46.72C601.707 46.0927 601.679 45.349 601.627 44.4969L589.067 72Z" stroke="#3D3D3D" stroke-width="4"/>
<path d="M533.442 70V72H535.442H544.082H546.082V70V50.96H555.701L566.979 70.9816L567.548 71.9911L568.706 71.9999L579.186 72.0799L582.686 72.1067L580.933 69.0779L568.999 48.4654C569.054 48.4339 569.11 48.4021 569.165 48.3701L569.178 48.3626L569.191 48.355C572.129 46.5918 574.497 44.2567 576.267 41.3643C578.058 38.4393 578.962 35.2517 578.962 31.84C578.962 28.1508 578.08 24.7791 576.281 21.7786C574.51 18.7698 572.106 16.3919 569.091 14.673C566.109 12.8889 562.825 12 559.282 12H535.442H533.442V14V70ZM565.081 27.8996L565.104 27.9376L565.128 27.9745C565.795 28.9957 566.162 30.2312 566.162 31.76C566.162 33.118 565.881 34.3243 565.34 35.4113C564.807 36.4312 564.089 37.2254 563.175 37.8276C562.292 38.3585 561.279 38.64 560.082 38.64H546.082V24.32H557.842C559.538 24.32 560.976 24.6619 562.203 25.2964L562.215 25.3027L562.227 25.3089C563.508 25.9494 564.437 26.813 565.081 27.8996Z" stroke="#3D3D3D" stroke-width="4"/>
<path d="M485.402 69.4231L485.413 69.4289L485.423 69.4347C489.162 71.4794 493.365 72.4799 497.983 72.4799C502.6 72.4799 506.803 71.4794 510.542 69.4347L510.553 69.4289L510.563 69.4231C514.279 67.3333 517.206 64.4695 519.31 60.8483C521.477 57.1576 522.543 53.0176 522.543 48.4799V13.9199V11.9199H520.543H512.303H510.303V13.9199V47.7599C510.303 50.1478 509.746 52.2449 508.662 54.1002C507.559 55.9359 506.072 57.402 504.172 58.5139L504.163 58.5194L504.154 58.5249C502.354 59.605 500.314 60.1599 497.983 60.1599C495.84 60.1599 493.879 59.6189 492.061 58.5307C490.267 57.4245 488.819 55.9562 487.703 54.1003C486.62 52.2449 486.063 50.1478 486.063 47.7599V13.9199V11.9199H484.063H475.423H473.423V13.9199V48.4799C473.423 53.0095 474.459 57.1435 476.566 60.8322L476.576 60.8486L476.585 60.8648C478.741 64.4764 481.69 67.3351 485.402 69.4231Z" stroke="#3D3D3D" stroke-width="4"/>
<path d="M425.326 70.4736L425.326 70.4737L425.337 70.4782C428.965 72.0332 432.889 72.8 437.085 72.8C441.278 72.8 445.178 72.0341 448.758 70.4761C452.36 68.9313 455.493 66.7499 458.136 63.9366C460.826 61.1301 462.884 57.8672 464.309 54.1656C465.793 50.395 466.525 46.3331 466.525 42C466.525 37.671 465.794 33.635 464.309 29.9143C462.885 26.1633 460.828 22.8726 458.136 20.0632C455.493 17.25 452.361 15.0688 448.758 13.524C445.178 11.9658 441.278 11.2 437.085 11.2C432.889 11.2 428.965 11.9667 425.337 13.5217L425.337 13.5216L425.326 13.5263C421.776 15.0723 418.65 17.252 415.961 20.0555L415.961 20.0561C413.316 22.8162 411.259 26.0813 409.784 29.8269L409.781 29.8344L409.778 29.842C408.347 33.5636 407.645 37.6238 407.645 42C407.645 46.3766 408.347 50.4594 409.774 54.2284L409.781 54.2456L409.788 54.2627C411.263 57.9514 413.315 61.206 415.947 64.0088L415.961 64.0242L415.976 64.0392C418.664 66.7845 421.785 68.9315 425.326 70.4736ZM443.716 59.0506L443.708 59.0541L443.7 59.0577C441.746 59.942 439.551 60.4 437.085 60.4C433.8 60.4 430.949 59.6087 428.469 58.0667C426.01 56.5042 424.061 54.3748 422.618 51.6348C421.186 48.8628 420.445 45.6671 420.445 42C420.445 39.2167 420.867 36.7355 421.681 34.5333L421.681 34.5333L421.686 34.5202C422.509 32.2443 423.655 30.3201 425.112 28.7191C426.637 27.1014 428.39 25.8476 430.381 24.9458C432.397 24.0566 434.622 23.6 437.085 23.6C439.551 23.6 441.746 24.0579 443.7 24.9422L443.708 24.9458L443.716 24.9493C445.748 25.847 447.486 27.1159 448.948 28.766L448.957 28.7768L448.967 28.7875C450.429 30.3908 451.579 32.3188 452.404 34.6002L452.413 34.6246L452.422 34.6488C453.282 36.8449 453.725 39.2878 453.725 42C453.725 44.7115 453.282 47.1866 452.417 49.4447L452.413 49.4556L452.409 49.4667C451.586 51.6941 450.434 53.6334 448.957 55.303C447.497 56.9013 445.757 58.1491 443.716 59.0506Z" stroke="#3D3D3D" stroke-width="4"/>
<path d="M366.444 69.6739L366.458 69.6833L366.473 69.6925C368.073 70.6997 369.79 71.4693 371.621 72.0007C373.465 72.536 375.387 72.8 377.378 72.8C380.319 72.8 383.036 72.3098 385.497 71.2907C387.959 70.2928 390.103 68.9005 391.901 67.1058C393.748 65.3155 395.155 63.2201 396.111 60.8347C397.123 58.3892 397.618 55.757 397.618 52.96V24H404.258H406.258V22V14V12H404.258H376.738H374.738V14V22V24H376.738H384.978V52.16C384.978 53.8566 384.637 55.2944 384.002 56.5212C383.366 57.7505 382.496 58.7024 381.376 59.413C380.292 60.0493 378.982 60.4 377.378 60.4C376.239 60.4 375.234 60.2416 374.346 59.9476C373.619 59.6905 372.736 59.1541 371.701 58.2157C370.703 57.2618 369.453 55.7962 367.943 53.7666L366.531 51.8673L364.894 53.5766L359.454 59.2566L358.45 60.3049L359.135 61.5844C360.007 63.2119 361.054 64.7234 362.273 66.117L362.287 66.1329L362.301 66.1485C363.534 67.499 364.916 68.6751 366.444 69.6739Z" stroke="#3D3D3D" stroke-width="4"/>
<path d="M276.879 72V70V14V12H278.879H286.639H287.642L288.242 12.8031L316.477 50.6042C316.343 48.3865 316.238 46.0188 316.16 43.5015C316.053 40.0121 315.999 36.3114 315.999 32.4V14V12H317.999H326.639H328.639V14V70V72H326.639H318.719H317.729L317.129 71.2129L288.747 33.9991C288.762 34.188 288.778 34.3735 288.792 34.5555C288.792 34.5561 288.792 34.5567 288.793 34.5573L286.799 34.72C287.012 37.28 287.172 39.3333 287.279 40.88C287.386 42.4267 287.439 43.6533 287.439 44.56L276.879 72ZM276.879 72H278.879H287.519H289.519V70V46.72C289.519 46.0927 289.491 45.349 289.439 44.4969L276.879 72Z" stroke="#3D3D3D" stroke-width="4"/>
<path d="M215.158 69.2779L214.105 72H217.023H225.823H227.202L227.693 70.7111L232.497 58.08H253.165L257.953 70.709L258.443 72H259.823H269.023H271.935L270.89 69.2826L249.37 13.2826L248.877 12H247.503H238.703H237.333L236.838 13.2779L215.158 69.2779ZM245.167 36.9845L248.494 45.76H237.184L240.413 37.2711L240.421 37.2485L240.429 37.2256C240.748 36.3243 241.146 35.2085 241.625 33.8774L241.629 33.8659L241.633 33.8542C242.051 32.649 242.467 31.3865 242.883 30.067C243.364 31.5297 243.785 32.8698 244.146 34.0882L244.155 34.1205L244.166 34.1525C244.623 35.5242 244.964 36.5016 245.167 36.9845Z" stroke="#3D3D3D" stroke-width="4"/>
<path d="M171.723 70V72H173.723H209.003H211.003V70V61.68V59.68H209.003H184.363V47.44H204.603H206.603V45.44V37.12V35.12H204.603H184.363V24.32H209.003H211.003V22.32V14V12H209.003H173.723H171.723V14V70Z" stroke="#3D3D3D" stroke-width="4"/>
<path d="M117.27 70V72H119.27H143.43C146.517 72 149.331 71.6355 151.849 70.8744L151.869 70.8683L151.889 70.8617C154.396 70.0456 156.582 68.8609 158.408 67.2818C160.309 65.6838 161.726 63.7096 162.645 61.3869C163.61 59.0287 164.07 56.3945 164.07 53.52C164.07 50.6359 163.481 47.9946 162.249 45.6471C161.092 43.3387 159.443 41.4182 157.327 39.9034C156.951 39.6243 156.564 39.361 156.166 39.1136C156.883 38.5091 157.536 37.8308 158.121 37.0774C160.137 34.5516 161.11 31.5144 161.11 28.08C161.11 24.7715 160.414 21.8362 158.909 19.3773C157.449 16.8517 155.269 14.9839 152.467 13.7659C149.693 12.5597 146.39 12 142.63 12H119.27H117.27V14V70ZM142.15 35.2H129.91V24.32H141.19C143.924 24.32 145.705 24.9098 146.82 25.8017C147.862 26.6349 148.47 27.851 148.47 29.76C148.47 30.8341 148.198 31.7224 147.686 32.4906L147.667 32.5186L147.649 32.5473C147.168 33.3248 146.473 33.9622 145.495 34.4511L145.48 34.4589L145.465 34.4668C144.565 34.9361 143.478 35.2 142.15 35.2ZM150.292 50.2963L150.309 50.3199L150.327 50.3429C150.932 51.1258 151.27 52.0956 151.27 53.36C151.27 55.5208 150.565 56.9536 149.306 57.9538C147.965 59.0186 145.931 59.68 142.95 59.68H129.91V47.52H142.55C144.548 47.52 146.177 47.8131 147.487 48.337L147.514 48.3478L147.541 48.3578C148.835 48.8323 149.711 49.4966 150.292 50.2963Z" stroke="#3D3D3D" stroke-width="4"/>
<defs>
<linearGradient id="paint0_linear_83_5" x1="1.44215" y1="9.56263e-07" x2="78.5573" y2="80.3504" gradientUnits="userSpaceOnUse">
<stop stop-color="#FCD3E1"/>
<stop offset="0.296" stop-color="#FFC6BD"/>
<stop offset="0.721" stop-color="#C6DFF3"/>
<stop offset="1" stop-color="#F6EFFF"/>
</linearGradient>
</defs>
</svg>
